<svg xmlns="http://www.w3.org/2000/svg" viewBox="0 0 260 64" fill="none" dir="rtl">
  <g id="logo-icon">
    <rect x="8" y="8" width="48" height="48" rx="14" fill="url(#grad_amber)" />
    <!-- Stylized Wheat Spikes / Sanabel + Digital Spark/IQ -->
    <path d="M32 44V20" stroke="#FFFFFF" stroke-width="3" stroke-linecap="round"/>
    <path d="M32 24C35 21 40 22 41 26C38 27 34 26 32 27" fill="#FFFFFF" opacity="0.95"/>
    <path d="M32 30C36 28 41 29 42 33C38 34 34 33 32 34" fill="#FFFFFF" opacity="0.95"/>
    <path d="M32 26C29 23 24 24 23 28C26 29 30 28 32 29" fill="#FFFFFF" opacity="0.95"/>
    <path d="M32 32C28 30 23 31 22 35C26 36 30 35 32 36" fill="#FFFFFF" opacity="0.95"/>
    <circle cx="32" cy="17" r="3" fill="#0D9488" stroke="#FFFFFF" stroke-width="1.5"/>
  </g>
  <!-- Arabic Brand Text -->
  <text x="68" y="38" font-family="'Cairo', 'Readex Pro', sans-serif" font-size="22" font-weight="800" fill="#0F172A">سنابل</text>
  <!-- IQ Badge in Edu Teal -->
  <rect x="135" y="20" width="44" height="24" rx="7" fill="#0D9488"/>
  <text x="157" y="37" font-family="'Plus Jakarta Sans', sans-serif" font-size="14" font-weight="800" fill="#FFFFFF" text-anchor="middle">IQ</text>
  <text x="68" y="52" font-family="'Cairo', sans-serif" font-size="10" font-weight="600" fill="#64748B">منظومة التعليم التفاعلي الذكي</text>
  <defs>
    <linearGradient id="grad_amber" x1="8" y1="8" x2="56" y2="56" gradientUnits="userSpaceOnUse">
      <stop stop-color="#F59E0B"/>
      <stop offset="1" stop-color="#D97706"/>
    </linearGradient>
  </defs>
</svg>